<?xml version="1.0" encoding="iso-8859-1"?>
<!-- Generator: Adobe Illustrator 16.0.0, SVG Export Plug-In . SVG Version: 6.00 Build 0)  -->
<!DOCTYPE svg PUBLIC "-//W3C//DTD SVG 1.1//EN" "http://www.w3.org/Graphics/SVG/1.1/DTD/svg11.dtd">
<svg version="1.1" id="Capa_1" xmlns="http://www.w3.org/2000/svg" xmlns:xlink="http://www.w3.org/1999/xlink" x="0px" y="0px"
	 width="412.996px" height="412.996px" viewBox="0 0 412.996 412.996" style="enable-background:new 0 0 412.996 412.996;"
	 xml:space="preserve">
<g>
	<g>
		<g>
			<path d="M392.996,28.338H20c-11.047,0-20,8.954-20,20v234c0,11.046,8.953,20,20,20h139.498v45.32h-54.283
				c-10.201,0-18.5,8.299-18.5,18.5s8.299,18.5,18.5,18.5h202.566c10.201,0,18.5-8.299,18.5-18.5s-8.299-18.5-18.5-18.5h-54.283
				v-45.32h139.498c11.047,0,20-8.954,20-20v-234C412.996,37.292,404.043,28.338,392.996,28.338z M382.996,272.338H30v-214h352.996
				V272.338z"/>
			<path d="M94.591,176.637l63.084,29.336c1.631,0.755,3.367,1.138,5.162,1.138c2.338,0,4.616-0.664,6.597-1.924
				c3.548-2.267,5.666-6.13,5.666-10.335v-0.322c0-4.751-2.785-9.115-7.096-11.119l-39.455-18.33l39.456-18.334
				c4.31-2.004,7.095-6.369,7.095-11.118v-0.319c0-4.211-2.119-8.074-5.665-10.334c-1.962-1.254-4.247-1.916-6.606-1.916
				c-1.778,0-3.563,0.391-5.16,1.133L94.59,153.525c-4.308,2.005-7.091,6.369-7.091,11.117v0.878
				C87.498,170.262,90.28,174.625,94.591,176.637z"/>
			<path d="M175.662,236.389c2.301,3.149,6.002,5.029,9.901,5.029h0.315c5.352,0,10.042-3.426,11.672-8.516l41.557-128.76
				c1.192-3.717,0.53-7.818-1.771-10.974c-2.301-3.149-6.002-5.03-9.901-5.03h-0.314c-5.354,0-10.048,3.426-11.679,8.516
				L173.88,225.425C172.698,229.145,173.364,233.242,175.662,236.389z"/>
			<path d="M237.896,135.628c0,4.746,2.782,9.11,7.095,11.122l39.455,18.33l-39.455,18.33c-4.311,2.004-7.096,6.368-7.096,11.119
				v0.322c0,4.205,2.117,8.068,5.669,10.336c1.974,1.258,4.254,1.923,6.595,1.923c1.792,0,3.527-0.383,5.169-1.142l63.081-29.335
				c4.307-2.009,7.089-6.372,7.089-11.115v-0.878c0-4.748-2.783-9.112-7.093-11.117l-63.08-29.334
				c-1.591-0.739-3.373-1.131-5.152-1.131c-2.358,0-4.644,0.662-6.604,1.912c-3.554,2.264-5.673,6.127-5.673,10.338V135.628
				L237.896,135.628z"/>
		</g>
	</g>
</g>
<g>
</g>
<g>
</g>
<g>
</g>
<g>
</g>
<g>
</g>
<g>
</g>
<g>
</g>
<g>
</g>
<g>
</g>
<g>
</g>
<g>
</g>
<g>
</g>
<g>
</g>
<g>
</g>
<g>
</g>
</svg>
