<svg id="icons" enable-background="new 0 0 64 64" height="512" viewBox="0 0 64 64" width="512" xmlns="http://www.w3.org/2000/svg"><path d="m63 0h-40c-.553 0-1 .447-1 1v18.999l-6-.003v-1.086c2.386-1.385 3.997-3.959 4-6.908 0-.001 0-.001 0-.002v-3.501c0-2.197-.846-4.195-2.219-5.706-.023-.029-.049-.056-.075-.082-1.553-1.664-3.757-2.711-6.207-2.711-4.686 0-8.499 3.813-8.499 8.499v.496c0 .043.02.079.024.12.008.067.018.131.039.193.021.063.049.117.08.173.031.055.063.106.104.154.042.05.09.091.142.132.049.04.097.074.153.103.061.032.124.052.19.071.039.011.07.034.111.041.055.009.102.011.157.019v1.999.002c.003 2.949 1.614 5.523 4 6.908v1.092h-2.99c-.004 0-.006-.002-.01-.002-2.757 0-5 2.243-5 5v6c0 .553.447 1 1 1s1-.447 1-1v-6c0-1.652 1.342-2.996 2.993-2.999.003 0 .005.001.007.001h3.593l.7.7c.01.011.024.014.035.023.075.069.16.124.252.167.029.014.057.027.086.037.106.038.217.064.332.065h.002.001c.002 0 .003-.001.005-.001.14-.001.276-.037.406-.097.012-.005.023-.002.035-.008l1.553-.775 1.553.776c.012.006.023.003.035.008.13.06.267.096.406.097.002 0 .003.001.005.001h.001.002c.115-.001.226-.027.332-.065.029-.01.057-.023.086-.037.092-.043.177-.098.253-.168.01-.009.024-.013.034-.022l.707-.707 7.583.004c.001-.001.002 0 .003 0s.002-.001.003-.001l.996.001h.001c2.206 0 4-1.794 4-4 0-.552.448-1 1-1s1 .448 1 1c0 3.309-2.691 6-6 6h-5c-.553 0-1 .447-1 1v6c0 .553.447 1 1 1s1-.447 1-1v-5h2v5c0 .553.447 1 1 1h40c.553 0 1-.447 1-1v-30c0-.553-.447-1-1-1zm-45.831 5.328c.331.591.574 1.237.708 1.923-.457-.347-.889-.568-1.312-.694zm-5.67-3.328c1.641 0 3.136.615 4.281 1.62l-1.482 3.018c-.396.116-.806.271-1.242.443-1.66.658-3.92 1.522-8.036 1.031.201-3.403 3.026-6.112 6.479-6.112zm-5.499 9.995v-1.776c3.881.256 6.193-.644 7.792-1.278 1.886-.747 2.447-.961 4.208 1.275v1.779c0 3.307-2.691 5.997-6 5.997s-6-2.69-6-5.997zm6 7.997c.691 0 1.359-.098 2-.264v.853l-.197.197-1.355-.678c-.022-.011-.046-.009-.068-.019-.063-.026-.128-.039-.195-.053-.063-.012-.122-.023-.184-.023-.063 0-.121.012-.184.023-.067.014-.132.026-.195.053-.022.01-.046.008-.068.019l-1.355.678-.199-.197v-.853c.641.167 1.309.264 2 .264zm50 10.008h-38v-4c4.411 0 8-3.589 8-8 0-1.654-1.346-3-3-3s-3 1.346-3 3c0 1.103-.897 2-2 2v-18h38z"/><path d="m6 31v-5c0-.553-.447-1-1-1s-1 .447-1 1v5c0 .553.447 1 1 1s1-.447 1-1z"/><path d="m60 55.996c-.011 0-.019.006-.029.006h-1.971v-2.092c2.366-1.373 3.968-3.919 3.996-6.838 0-.006.001-.012.001-.019 0-.018.003-.034.003-.052 0-.001 0-.001 0-.002v-4.989c0-.004.002-.007.002-.01 0-1.858-1.28-3.412-3.002-3.859v-2.141c0-.553-.447-1-1-1h-5c-3.857 0-6.997 3.138-7 6.995v.001 5.004.002c0 .018.003.034.003.052 0 .007.001.013.001.019.028 2.919 1.63 5.465 3.996 6.838v2.092h-1.971c-.011 0-.019-.006-.029-.006-2.206 0-4 1.794-4 3.999v3.004c0 .553.447 1 1 1h18c.553 0 1-.447 1-1v-3.005c0-2.205-1.794-3.999-4-3.999zm-7-18.996h4v2c0 .553.447 1 1 1 1.101 0 1.996.893 2.001 1.991 0 .002-.001.003-.001.005v4.739c-.432.709-2.249 3.265-6 3.265-3.753 0-5.559-2.534-6-3.263v-4.737c0-2.757 2.243-5 5-5zm-3.672 13.749c1.186.708 2.721 1.251 4.672 1.251s3.486-.543 4.672-1.251c-1.101 1.366-2.785 2.243-4.672 2.243s-3.571-.877-4.672-2.243zm4.672 4.243c.691 0 1.359-.098 2-.264v1.267h-4v-1.267c.641.167 1.309.264 2 .264zm-6.02 3.006c.007 0 .013.004.02.004h3c.012 0 .021-.007.034-.007h5.932c.013 0 .022.007.034.007h3c.007 0 .013-.004.02-.004 1.094.011 1.98.901 1.98 1.997v2.005h-16v-2.005c0-1.096.887-1.986 1.98-1.997z"/><path d="m1 64h18c.553 0 1-.447 1-1v-3.005c0-2.205-1.794-3.999-4-3.999-.011 0-.019.006-.029.006h-1.971v-2.092c2.366-1.373 3.968-3.919 3.996-6.838 0-.006.001-.012.001-.019 0-.018.003-.034.003-.052 0-.001 0-.001 0-.002v-4.004c0-4.408-3.589-7.995-8-7.995s-8 3.587-8 7.996v4.004.002c0 .018.003.034.003.052 0 .007.001.013.001.019.028 2.918 1.63 5.464 3.996 6.837v2.092h-1.971c-.011 0-.019-.006-.029-.006-2.206 0-4 1.794-4 3.999v3.005c0 .553.447 1 1 1zm9-27c3.309 0 6 2.689 6 5.996v3.739c-.432.709-2.249 3.265-6 3.265-3.753 0-5.559-2.534-6-3.263v-3.741c0-3.307 2.691-5.996 6-5.996zm-4.672 13.749c1.186.708 2.721 1.251 4.672 1.251s3.486-.543 4.672-1.251c-1.101 1.366-2.785 2.243-4.672 2.243s-3.571-.877-4.672-2.243zm4.672 4.243c.691 0 1.359-.098 2-.264v1.267h-4v-1.267c.641.167 1.309.264 2 .264zm-6.02 3.006c.007 0 .013.004.02.004h3c.012 0 .021-.007.034-.007h5.932c.013 0 .022.007.034.007h3c.007 0 .013-.004.02-.004 1.094.011 1.98.901 1.98 1.997v2.005h-16v-2.005c0-1.096.887-1.986 1.98-1.997z"/><path d="m28 56.002h-1.971c-.011 0-.019-.006-.029-.006-2.206 0-4 1.794-4 3.999v3.005c0 .553.447 1 1 1h18c.553 0 1-.447 1-1v-3.005c0-2.205-1.794-3.999-4-3.999-.011 0-.019.006-.029.006h-1.971v-.684c0-.113-.029-.217-.064-.318h5.064c.553 0 1-.447 1-1v-9.958c0-5.514-4.486-10-10-10s-10 4.486-10 10v9.958c0 .553.447 1 1 1h5.064c-.035.102-.064.205-.064.318zm12 3.993v2.005h-16v-2.005c0-1.096.887-1.986 1.98-1.997.007 0 .013.004.02.004h2.859l2.824.941c.002.001.004 0 .005.001.1.032.204.051.312.051s.212-.019.312-.051c.002-.001.003 0 .005-.001l2.824-.941h2.859c.007 0 .013-.004.02-.004 1.093.011 1.98.901 1.98 1.997zm-8-23.953c4.411 0 8 3.589 8 8v8.958h-16v-8.958c0-4.411 3.589-8 8-8zm2.064 18.958c-.035.102-.064.205-.064.318v.956l-2 .667-2-.667v-.956c0-.113-.029-.217-.064-.318z"/><path d="m36.998 21.999c-1.654 0-3 1.346-3 3s1.346 3 3 3h5.998c1.302 0 2.401-.838 2.815-1.999h8.189c.553 0 1-.447 1-1v-5.999h4c.553 0 1-.447 1-1v-4.001c0-.553-.447-1-1-1h-10c-.553 0-1 .447-1 1v1.001h-2.727l-4.276-2.566v-2.435h1.999c1.654 0 3-1.346 3-3s-1.346-3-3-3h-5.998c-1.654 0-3 1.346-3 3s1.346 3 3 3h1.999v2.435l-4.514 2.709c-.301.181-.485.506-.485.857s.185.677.485.857l4.514 2.709v2.432zm0-15.999h5.998c.552 0 1 .448 1 1s-.448 1-1 1h-5.998c-.552 0-1-.448-1-1s.448-1 1-1zm0 17.999h5.998c.552 0 1 .448 1 1s-.448 1-1 1h-5.998c-.552 0-1-.448-1-1s.448-1 1-1zm13.002-8.999h8v2.001h-8zm-10.003-.833 3.056 1.834-3.056 1.834-3.056-1.834zm1 5.4 4.276-2.566h2.727v1c0 .553.447 1 1 1h4v4.999h-7.188c-.414-1.162-1.514-2.001-2.816-2.001h-1.999z"/></svg>