<svg id="icons" enable-background="new 0 0 64 64" height="512" viewBox="0 0 64 64" width="512" xmlns="http://www.w3.org/2000/svg"><path d="m61 26.496h-5.008v-17.994c0-1.654-1.346-3-3-3h-49.992c-1.654 0-3 1.346-3 3v36.996c0 1.654 1.346 3 3 3h17.672l-1.429 4.998h-1.245c-1.654 0-3 1.346-3 3v1c0 .553.447 1 1 1h23.998c.553 0 1-.447 1-1v-1c0-1.654-1.346-3-3-3h-1.245l-1.429-4.998h10.68v7c0 1.654 1.346 3 3 3h11.998c1.654 0 3-1.346 3-3v-26.002c0-1.654-1.346-3-3-3zm-15.535 0-8.697-10.629c-.023-.029-.058-.043-.084-.068-.022-.022-.033-.052-.059-.072-.024-.021-.055-.025-.081-.043-.061-.041-.121-.074-.188-.1-.057-.022-.111-.04-.17-.052-.065-.013-.128-.019-.194-.019-.063.001-.124.006-.187.018-.061.012-.117.029-.176.053-.066.026-.126.059-.186.099-.026.019-.057.023-.082.044s-.036.05-.06.072c-.025.025-.06.039-.083.068l-4.711 5.758-2.239-2.756c-.022-.027-.055-.041-.079-.065-.025-.024-.038-.058-.066-.08-.026-.021-.06-.027-.087-.046-.057-.037-.113-.066-.175-.092-.061-.023-.118-.043-.181-.055-.063-.013-.124-.017-.188-.017s-.125.004-.188.017c-.063.012-.12.03-.181.055-.063.025-.119.055-.176.092-.028.019-.061.024-.087.046-.028.022-.041.055-.066.08-.024.024-.057.038-.079.065l-6.197 7.627h-14.518v-14.998h43.998v14.998h-.996zm-22.368 0 4.396-5.41 1.722 2.119-2.692 3.291zm12.896-8.419 6.89 8.419h-13.779zm16.875 22.419 1.132-1.697.297.445-.834 1.252zm3.458-.69c.005-.007.01-.014.014-.021l1.658-2.488 2.132 3.199h-4.264zm2.507-4.863-.003-.004c-.053-.079-.125-.135-.194-.194-.03-.025-.049-.061-.083-.083h-.001c-.11-.074-.234-.123-.363-.148-.063-.013-.127-.001-.19-.001-.064 0-.128-.012-.191.001-.129.025-.252.074-.363.148-.021.015-.033.037-.053.054-.083.063-.164.132-.225.224l-.003.004-1.664 2.498-.663-.994c-.001-.001-.001-.002-.002-.003l-.002-.003c-.038-.057-.093-.092-.139-.139-.047-.046-.082-.101-.139-.139 0 0-.001 0-.001-.001-.111-.073-.234-.123-.362-.147-.064-.013-.128-.001-.191-.001-.064 0-.128-.012-.191.001-.253.049-.487.194-.641.426l-.002.003c-.001.001-.001.002-.002.003l-2.699 4.049h-2.463v-7.998h13.997v7.198zm-10.831 7.553h13.998v10.002h-13.998zm13.998-13v1.002h-13.998v-1.002c0-.552.448-1 1-1h1.996 10.002c.552 0 1 .448 1 1zm-59-21.994h49.992c.552 0 1 .448 1 1v17.994h-1.994v-15.998c0-.553-.447-1-1-1h-45.998c-.553 0-1 .447-1 1v16.998c0 .553.447 1 1 1h15.968c.008 0 .016.004.023.004.006 0 .012-.004.018-.004h25.178c-.112.314-.185.647-.185 1v1.002h-41.002c-.553 0-1 .447-1 1s.447 1 1 1h41.002v2.004h-41.002c-.553 0-1 .447-1 1s.447 1 1 1h41.002v2.004h-41.002c-.553 0-1 .447-1 1s.447 1 1 1h41.002v1.992h-44.002v-33.996c0-.552.448-1 1-1zm14.998 47.994h19.998c.552 0 1 .448 1 1h-21.998c0-.552.448-1 1-1zm16.672-2h-13.346l1.429-4.998h10.488zm-6.644-6.998h-25.026c-.552 0-1-.448-1-1v-1h26.016c-.552 0-.994.447-.994 1s.452 1 1.004 1 1-.447 1-1-.448-1-1-1h17.976v2zm32.974 10h-5.972-6.026c-.552 0-1-.448-1-1v-1h7.016c-.552 0-.994.447-.994 1s.452 1 1.005 1c.552 0 1-.447 1-1s-.448-1-1-1h6.971v1c0 .552-.448 1-1 1z"/><path d="m15.004 13.498c-1.654 0-3 1.346-3 3s1.346 3 3 3 3-1.346 3-3-1.346-3-3-3zm0 4c-.552 0-1-.448-1-1s.448-1 1-1 1 .448 1 1-.448 1-1 1z"/><path d="m50.03 33.494h-.01c-.552 0-.994.447-.994 1s.452 1 1.005 1c.552 0 1-.447 1-1s-.449-1-1.001-1z"/><path d="m59.998 46.498h-10c-.553 0-1 .447-1 1s.447 1 1 1h10c.553 0 1-.447 1-1s-.447-1-1-1z"/><path d="m59.998 43.498h-10c-.553 0-1 .447-1 1s.447 1 1 1h10c.553 0 1-.447 1-1s-.447-1-1-1z"/><path d="m59.998 49.498h-10c-.553 0-1 .447-1 1s.447 1 1 1h10c.553 0 1-.447 1-1s-.447-1-1-1z"/></svg>