<svg id="icons" enable-background="new 0 0 64 64" height="512" viewBox="0 0 64 64" width="512" xmlns="http://www.w3.org/2000/svg"><path d="m1 48.489h43.061c.313 3.093 2.046 6 4.938 7.67 1.52.877 3.246 1.341 4.992 1.341 3.565 0 6.887-1.916 8.669-5.001.9-1.561 1.323-3.265 1.329-4.948 0-.022.011-.039.011-.06 0-.026-.013-.049-.015-.074-.018-1.7-.466-3.371-1.303-4.851-.012-.024-.012-.052-.025-.075-.011-.019-.029-.029-.041-.047-.847-1.448-2.061-2.707-3.614-3.604-.002-.002-.004-.005-.007-.007-.005-.003-.011-.003-.017-.006-1.229-.704-2.591-1.125-3.988-1.265v-28.062c0-1.654-1.346-3-3-3h-48.99c-1.654 0-3 1.346-3 3v37.99c0 .552.447.999 1 .999zm51.99-10.924c-1.41.145-2.763.574-3.969 1.267-.01.005-.02.005-.028.01-.012.007-.018.019-.028.025-1.482.864-2.745 2.104-3.628 3.632-.001.001-.001.002-.002.003 0 .002-.001.002-.002.003-.001.002-.001.004-.002.005-.726 1.262-1.137 2.617-1.273 3.979h-42.058v-33.989h50.99zm7.385 5.103c-.436.29-.585.865-.319 1.325.186.321.521.5.867.5.146 0 .293-.039.433-.106.285.678.477 1.39.568 2.119-.517.038-.928.458-.928.985 0 .532.418.956.941.988-.126 1.035-.457 2.062-1.011 3.02-1.426 2.468-4.083 4.001-6.937 4.001-1.396 0-2.776-.371-3.992-1.073-2.25-1.299-3.622-3.535-3.926-5.935.519-.037.93-.458.93-.985 0-.532-.418-.958-.943-.988.088-.718.281-1.431.571-2.12.141.069.289.108.438.108.346 0 .682-.179.867-.5.266-.459.116-1.033-.318-1.324.447-.591.969-1.113 1.552-1.554.189.284.501.447.825.447.169 0 .341-.043.498-.134.459-.264.618-.834.388-1.303.674-.286 1.388-.481 2.124-.575.034.521.457.937.987.937.531 0 .955-.417.988-.939.729.09 1.445.28 2.126.567-.232.468-.074 1.039.385 1.305.157.092.33.135.5.135.324 0 .637-.163.827-.449.599.45 1.123.971 1.559 1.548zm-57.375-34.168h1.02c-.552 0-.994.448-.994 1s.452 1 1.005 1c.552 0 1-.448 1-1s-.448-1-1-1h2.987c-.552 0-.994.448-.994 1s.452 1 1.005 1c.552 0 1-.448 1-1s-.448-1-1-1h2.993c-.552 0-.994.448-.994 1s.452 1 1.005 1c.552 0 1-.448 1-1s-.448-1-1-1h41.957c.552 0 1 .449 1 1v1h-42.958-3.004-2.998-2.03v-1c0-.552.448-1 1-1z"/><path d="m5.002 44.505h21.994.001c.121 0 .242-.027.357-.072.044-.017.079-.043.119-.065.049-.027.102-.045.146-.081.015-.012.021-.028.034-.041.054-.048.094-.104.136-.162.036-.049.074-.094.1-.147.026-.055.038-.114.055-.175.019-.067.037-.132.041-.202.001-.019.011-.034.011-.054v-28.005c0-.552-.447-1-1-1h-21.994c-.553 0-1 .448-1 1v28.003c0 .554.447 1.001 1 1.001zm6.998-6.472 1.085 1.266-2.562 3.206h-2.355zm6.999-2.933 5.918 7.405h-11.834zm6.997-18.599v24.15l-6.215-7.777c-.026-.033-.063-.049-.094-.078-.024-.024-.037-.056-.065-.079-.022-.018-.049-.021-.072-.037-.061-.041-.122-.071-.189-.098-.057-.022-.111-.042-.171-.054-.064-.013-.127-.016-.192-.015-.063 0-.124.002-.188.015-.061.012-.116.031-.175.055-.065.026-.126.056-.186.096-.023.016-.051.02-.073.038-.028.022-.042.055-.066.08-.029.029-.066.045-.093.078l-3.861 4.833-1.594-1.86c-.02-.023-.047-.033-.068-.054-.017-.017-.024-.039-.043-.055-.029-.024-.065-.032-.096-.054-.062-.041-.121-.079-.188-.105-.058-.023-.114-.036-.174-.048-.063-.013-.125-.022-.19-.022-.066 0-.128.01-.193.022-.06.012-.116.025-.173.048-.065.025-.123.062-.183.102-.033.021-.071.03-.102.057-.02.017-.028.041-.046.06-.021.02-.046.028-.064.05l-5.24 6.111v-25.459z"/><path d="m10.504 24.496c1.379 0 2.5-1.122 2.5-2.5s-1.121-2.5-2.5-2.5-2.5 1.122-2.5 2.5 1.121 2.5 2.5 2.5zm0-3c.275 0 .5.224.5.5s-.225.5-.5.5-.5-.224-.5-.5.225-.5.5-.5z"/><path d="m31.025 19.498h18.995c.553 0 1-.448 1-1s-.447-1-1-1h-18.995c-.553 0-1 .448-1 1s.448 1 1 1z"/><path d="m31.025 22.498h18.995c.553 0 1-.448 1-1s-.447-1-1-1h-18.995c-.553 0-1 .448-1 1s.448 1 1 1z"/><path d="m31.025 25.498h18.995c.553 0 1-.448 1-1s-.447-1-1-1h-18.995c-.553 0-1 .448-1 1s.448 1 1 1z"/><path d="m31.025 28.501h18.995c.553 0 1-.448 1-1s-.447-1-1-1h-18.995c-.553 0-1 .448-1 1s.448 1 1 1z"/><path d="m31.025 31.507h18.995c.553 0 1-.448 1-1s-.447-1-1-1h-18.995c-.553 0-1 .448-1 1s.448 1 1 1z"/><path d="m31.025 34.499h8.984c.553 0 1-.447 1-1 0-.552-.447-1-1-1h-8.984c-.553 0-1 .448-1 1 0 .553.448 1 1 1z"/><path d="m30.996 41.496h8.998c.553 0 1-.447 1-1v-3c0-.553-.447-1-1-1h-8.998c-.553 0-1 .447-1 1v3c0 .553.447 1 1 1zm1-3h6.998v1h-6.998z"/><path d="m55 45.211v-2.71c0-.553-.447-1-1-1s-1 .447-1 1v2.708c-.883.386-1.502 1.266-1.502 2.289 0 1.379 1.121 2.5 2.5 2.5s2.5-1.121 2.5-2.5c0-1.022-.617-1.9-1.498-2.287zm-1.002 2.787c-.275 0-.5-.225-.5-.5s.225-.5.5-.5.5.225.5.5-.225.5-.5.5z"/></svg>