<?xml version="1.0" encoding="iso-8859-1"?>
<!-- Generator: Adobe Illustrator 19.0.0, SVG Export Plug-In . SVG Version: 6.00 Build 0)  -->
<svg version="1.1" id="Layer_1" xmlns="http://www.w3.org/2000/svg" xmlns:xlink="http://www.w3.org/1999/xlink" x="0px" y="0px"
	 viewBox="0 0 496 496" style="enable-background:new 0 0 496 496;" xml:space="preserve">
<g>
	<g>
		<g>
			<path d="M112.68,260c-8.16,0-15.824,4.344-20,11.32l-12.04,20.072l-0.64-1.28v-24.696l26.008-10.408
				C114.504,251.616,120,243.512,120,234.36c0-7.152-3.472-13.896-9.264-18.072c-5.808-4.168-13.312-5.288-20.08-3.008l-2.832,0.952
				l3.232-6.464C94.288,201.296,96,194.056,96,186.832C96,174.24,85.76,164,73.168,164c-8.704,0-16.52,4.832-20.424,12.624
				l-19.896,39.8L16.16,298.432L16,404l6.28,32H0v56h120v-56H96v-53.576l14.656-21.984l21.792-57.504
				c2.36-6.296,3.552-12.896,3.552-19.616C136,270.464,125.536,260,112.68,260z M95.768,228.44c1.92-0.64,3.976-0.336,5.632,0.848
				c1.656,1.184,2.6,3.032,2.6,5.072c0,2.568-1.536,4.832-3.92,5.792L80,248.184v-14.44L95.768,228.44z M104,452v24H16v-24H104z
				 M117.464,297.312L96.84,352.328L80,377.576V436H38.56L32,403.208V300.792l15.632-78.168l19.424-38.832
				c1.16-2.344,3.504-3.792,6.112-3.792c3.76,0,6.832,3.072,6.832,6.832c0,4.752-1.128,9.52-3.256,13.792L64,226.112v67.784
				l15.36,30.72l27.04-45.064c1.312-2.192,3.72-3.552,6.28-3.552c4.04,0,7.32,3.28,7.32,7.32
				C120,288.12,119.152,292.832,117.464,297.312z"/>
			<path d="M473.76,436l6.088-30.432L480,300l-16.16-81.568l-20.584-41.808C439.36,168.832,431.536,164,422.832,164
				C410.24,164,400,174.24,400,186.832c0,7.216,1.712,14.464,4.944,20.944l3.224,6.448l-2.824-0.952
				c-6.76-2.288-14.272-1.16-20.08,3.008c-5.792,4.184-9.264,10.928-9.264,18.08c0,9.16,5.496,17.256,13.984,20.648L416,265.416
				v24.696l-0.64,1.28l-12.04-20.064c-4.176-6.984-11.84-11.328-20-11.328c-12.856,0-23.32,10.464-23.32,23.32
				c0,6.72,1.192,13.32,3.552,19.616l20.952,55.872L400,382.424V436h-24v56h120v-56H473.76z M395.912,240.152
				c-2.376-0.96-3.912-3.224-3.912-5.792c0-2.04,0.944-3.88,2.6-5.072c1.656-1.192,3.696-1.496,5.632-0.848L416,233.744v14.44
				L395.912,240.152z M399.168,352.328l-20.624-55.016c-1.696-4.48-2.544-9.192-2.544-13.992c0-4.04,3.28-7.32,7.32-7.32
				c2.56,0,4.968,1.36,6.28,3.552l27.04,45.056l15.36-30.72v-67.784l-12.744-25.48c-2.128-4.264-3.256-9.04-3.256-13.792
				c0-3.76,3.072-6.832,6.832-6.832c2.6,0,4.944,1.448,6.112,3.784l19.424,38.832L464,300.792v102.424L457.44,436H416v-58.424
				L399.168,352.328z M480,476h-88v-24h88V476z"/>
			<path d="M349.112,148H368v-48h-18.888c-2.552-10.848-6.784-21.08-12.632-30.528l13.344-13.352l-33.936-33.936l-13.36,13.336
				c-9.456-5.848-19.68-10.08-30.528-12.632V4h-48v18.888c-10.848,2.552-21.08,6.784-30.528,12.632L180.12,22.176l-33.936,33.936
				l13.344,13.352c-5.848,9.456-10.08,19.68-12.632,30.528H128v48h18.888c2.552,10.848,6.784,21.08,12.632,30.528l-13.344,13.352
				l33.936,33.936l12.256-12.256c-0.096,0.808-0.248,1.6-0.248,2.432c0,7.12,3.76,13.328,9.368,16.88
				c-0.848,2.224-1.368,4.608-1.368,7.12c0,11.032,8.968,20,20,20h56c11.032,0,20-8.968,20-20c0-2.52-0.52-4.904-1.368-7.12
				c5.608-3.544,9.368-9.76,9.368-16.88c0-0.736-0.136-1.44-0.216-2.152l11.976,11.976l33.936-33.936l-13.344-13.352
				C342.328,169.08,346.552,158.848,349.112,148z M276.128,244h-56c-2.2,0-4-1.8-4-4s1.8-4,4-4h56c2.2,0,4,1.8,4,4
				S278.328,244,276.128,244z M284.128,220h-8h-56h-8c-2.2,0-4-1.8-4-4s1.8-4,4-4h72c2.2,0,4,1.8,4,4S286.328,220,284.128,220z
				 M256.128,146.528c9.288-3.312,16-12.112,16-22.528c0-13.232-10.768-24-24-24s-24,10.768-24,24c0,10.416,6.712,19.216,16,22.528
				V196h-16v-21.24l-3.992-2.312C202.864,162.44,192.128,143.88,192.128,124c0-30.872,25.128-56,56-56s56,25.128,56,56
				c0,19.872-10.736,38.44-28.008,48.448l-3.992,2.312V196h-16V146.528z M248.128,132c-4.416,0-8-3.584-8-8s3.584-8,8-8
				c4.416,0,8,3.584,8,8S252.544,132,248.128,132z M334.672,138.672c-2.216,13.2-7.264,25.4-14.992,36.248l-3.92,5.504l11.44,11.456
				l-11.312,11.312l-11.456-11.456l-5.512,3.928c-1.464,1.04-3.064,2.08-4.776,3.112c-1.848-1.08-3.848-1.944-6.016-2.384v-12.6
				c19.848-13.304,32-35.808,32-59.808c0-39.704-32.296-72-72-72c-39.704,0-72,32.296-72,72c0,23.992,12.152,46.496,32,59.8v12.608
				c-2.216,0.448-4.256,1.336-6.144,2.456c-1.744-1.056-3.392-2.112-4.896-3.184l-5.512-3.928l-11.456,11.456l-11.312-11.312
				l11.44-11.456l-3.92-5.504c-7.728-10.848-12.776-23.048-14.992-36.248L160.2,132H144v-16h16.2l1.128-6.672
				c2.216-13.2,7.264-25.4,14.992-36.248l3.92-5.504L168.8,56.12l11.312-11.312l11.456,11.44l5.504-3.92
				C207.92,44.6,220.12,39.552,233.32,37.336L240,36.2V20h16v16.2l6.672,1.128c13.2,2.216,25.4,7.264,36.248,14.992l5.504,3.92
				L315.88,44.8l11.312,11.312l-11.44,11.456l3.92,5.504c7.728,10.848,12.776,23.048,14.992,36.248L335.8,116H352v16h-16.2
				L334.672,138.672z"/>
			<rect x="240" y="276" width="16" height="16"/>
			<rect x="240" y="308" width="16" height="16"/>
			<rect x="240" y="340" width="16" height="16"/>
			<rect x="240" y="372" width="16" height="16"/>
		</g>
	</g>
</g>
<g>
</g>
<g>
</g>
<g>
</g>
<g>
</g>
<g>
</g>
<g>
</g>
<g>
</g>
<g>
</g>
<g>
</g>
<g>
</g>
<g>
</g>
<g>
</g>
<g>
</g>
<g>
</g>
<g>
</g>
</svg>
