<svg height="512pt" viewBox="0 0 512 512" width="512pt" xmlns="http://www.w3.org/2000/svg"><path d="m34.132812 443.734375h131.261719l-8.535156 17.066406h-3.257813c-26.71875 0-42.667968 12.757813-42.667968 34.132813 0 9.425781 7.640625 17.066406 17.066406 17.066406h256c9.425781 0 17.066406-7.640625 17.066406-17.066406 0-21.375-15.949218-34.132813-42.667968-34.132813h-3.257813l-8.535156-17.066406h131.261719c18.851562 0 34.132812-15.28125 34.132812-34.132813v-298.667968c0-18.851563-15.28125-34.132813-34.132812-34.132813h-93.867188c-4.710938 0-8.535156 3.820313-8.535156 8.53125 0 4.714844 3.824218 8.535157 8.535156 8.535157h93.867188c9.425781 0 17.066406 7.640624 17.066406 17.066406v298.667968c0 9.425782-7.640625 17.066407-17.066406 17.066407h-443.734376c-9.425781 0-17.066406-7.640625-17.066406-17.066407v-298.667968c0-9.425782 7.640625-17.066406 17.066406-17.066406h93.867188c4.710938 0 8.535156-3.820313 8.535156-8.535157 0-4.710937-3.824218-8.53125-8.535156-8.53125h-93.867188c-18.851562 0-34.132812 15.28125-34.132812 34.132813v298.667968c0 18.851563 15.28125 34.132813 34.132812 34.132813zm349.867188 51.199219h-256c0-4.222656 0-17.066406 25.601562-17.066406h204.796876c25.601562 0 25.601562 12.84375 25.601562 17.066406zm-56.480469-51.199219 8.53125 17.066406h-160.109375l8.53125-17.066406zm0 0"/><path d="m452.265625 358.398438h-392.53125c-4.714844 0-8.535156-3.820313-8.535156-8.53125v-213.332032c0-4.714844 3.820312-8.535156 8.535156-8.535156h25.597656c4.714844 0 8.535157-3.820312 8.535157-8.535156 0-4.710938-3.820313-8.53125-8.535157-8.53125h-25.597656c-14.140625 0-25.601563 11.460937-25.601563 25.601562v213.332032c0 14.136718 11.460938 25.597656 25.601563 25.597656h392.53125c14.140625 0 25.601563-11.460938 25.601563-25.597656v-213.332032c0-14.140625-11.460938-25.601562-25.601563-25.601562h-25.597656c-4.714844 0-8.535157 3.820312-8.535157 8.53125 0 4.714844 3.820313 8.535156 8.535157 8.535156h25.597656c4.714844 0 8.535156 3.820312 8.535156 8.535156v213.332032c0 4.710937-3.820312 8.53125-8.535156 8.53125zm0 0"/><path d="m213.332031 392.535156c-4.710937 0-8.53125 3.820313-8.53125 8.53125 0 4.714844 3.820313 8.535156 8.53125 8.535156h85.335938c4.710937 0 8.53125-3.820312 8.53125-8.535156 0-4.710937-3.820313-8.53125-8.53125-8.53125zm0 0"/><path d="m365.703125 49.605469-14.230469-14.242188c-5.769531-5.75-14.796875-6.621093-21.558594-2.082031l-21.332031 14.085938c-6.597656-3.550782-13.558593-6.390626-20.761719-8.464844l-5.027343-25.15625c-1.582031-7.984375-8.582031-13.7382815-16.722657-13.746094h-20.140624c-8.132813 0-15.136719 5.738281-16.734376 13.714844l-5.160156 25.121094c-7.1875 2.128906-14.121094 5.015624-20.695312 8.617187l-21.246094-14.171875c-6.769531-4.53125-15.796875-3.644531-21.554688 2.113281l-14.253906 14.242188c-5.699218 5.773437-6.566406 14.757812-2.070312 21.515625l14.09375 21.332031c-3.546875 6.601563-6.382813 13.5625-8.464844 20.761719l-25.15625 5.015625c-7.972656 1.601562-13.722656 8.59375-13.753906 16.726562v20.15625c.019531 8.128907 5.753906 15.121094 13.722656 16.734375l25.113281 5.121094c2.132813 7.179688 5.019531 14.117188 8.609375 20.691406l-14.164062 21.289063c-4.507813 6.777343-3.617188 15.789062 2.125 21.558593l14.230468 14.230469c5.761719 5.761719 14.785157 6.644531 21.554688 2.117188l21.335938-14.085938c6.597656 3.550781 13.558593 6.386719 20.761718 8.464844l5.023438 25.15625c1.597656 7.953125 8.570312 13.6875 16.683594 13.710937h20.140624c8.132813 0 15.136719-5.738281 16.734376-13.710937l5.160156-25.125c7.1875-2.125 14.121094-5.015625 20.695312-8.617187l21.246094 14.207031c6.773438 4.535156 15.804688 3.648437 21.566406-2.117188l14.242188-14.230469c5.734375-5.773437 6.617187-14.78125 2.113281-21.558593l-14.097656-21.332031c3.535156-6.570313 6.394531-13.480469 8.535156-20.625l-8.175781-2.429688 8.140625 2.292969 25.15625-5.015625c7.945312-1.632813 13.65625-8.617188 13.679687-16.726563v-20.15625c-.019531-8.128906-5.753906-15.121093-13.722656-16.734375l-25.113281-5.117187c-2.132813-7.183594-5.019531-14.121094-8.609375-20.695313l14.207031-21.257812c4.542969-6.777344 3.652344-15.816406-2.125-21.578125zm-26.28125 33.328125c-3.476563 5.285156-3.757813 12.050781-.734375 17.605468 2.980469 5.550782 5.390625 11.386719 7.1875 17.425782 1.757812 6.105468 6.761719 10.726562 12.984375 11.996094l25.140625 5.027343v20.15625l-25.140625 5.027344c-6.222656 1.269531-11.226563 5.890625-12.984375 11.996094-1.800781 6.039062-4.207031 11.882812-7.1875 17.433593-3.035156 5.550782-2.75 12.328126.742188 17.605469l14.207031 21.257813-14.242188 14.238281-21.253906-14.207031c-5.28125-3.480469-12.054687-3.769532-17.613281-.75-5.550782 2.984375-11.394532 5.394531-17.433594 7.195312-6.078125 1.78125-10.675781 6.773438-11.945312 12.976563l-5.078126 25.148437h-20.140624l-5.035157-25.15625c-1.285156-6.21875-5.90625-11.210937-12.003906-12.980468-6.035156-1.792969-11.871094-4.199219-17.417969-7.175782-2.535156-1.367187-5.371094-2.085937-8.25-2.089844-3.34375-.007812-6.609375.976563-9.386718 2.832032l-21.257813 14.207031-14.242187-14.238281 14.214843-21.265625c3.476563-5.285157 3.757813-12.050781.734375-17.605469-2.980468-5.550781-5.386718-11.386719-7.183594-17.425781-1.757812-6.105469-6.761718-10.726563-12.988281-11.996094l-25.113281-5.027344v-20.15625l25.140625-5.027343c6.222656-1.269532 11.226563-5.890626 12.984375-11.996094 1.800781-6.039063 4.207031-11.878906 7.1875-17.433594 3.035156-5.550781 2.75-12.328125-.742188-17.605469l-14.207031-21.253906 14.242188-14.242187 21.253906 14.207031c5.277344 3.496093 12.058594 3.785156 17.613281.75 5.550782-2.984375 11.394532-5.394531 17.433594-7.191407 6.09375-1.769531 10.710938-6.765624 11.988281-12.980468l5.035157-25.148438h20.140624l5.035157 25.15625c1.285156 6.21875 5.90625 11.214844 12.003906 12.980469 6.035156 1.792969 11.871094 4.199219 17.417969 7.175781 5.554687 3.039063 12.332031 2.753906 17.613281-.742187l21.253906-14.207031 14.242188 14.242187zm0 0"/><path d="m256 76.800781c-37.703125 0-68.265625 30.5625-68.265625 68.265625s30.5625 68.265625 68.265625 68.265625 68.265625-30.5625 68.265625-68.265625c-.042969-37.683594-30.582031-68.222656-68.265625-68.265625zm0 119.464844c-28.277344 0-51.199219-22.921875-51.199219-51.199219s22.921875-51.199218 51.199219-51.199218 51.199219 22.921874 51.199219 51.199218c-.027344 28.265625-22.933594 51.171875-51.199219 51.199219zm0 0"/><path d="m264.535156 145.066406c0 4.714844-3.824218 8.535156-8.535156 8.535156s-8.535156-3.820312-8.535156-8.535156c0-4.710937 3.824218-8.53125 8.535156-8.53125s8.535156 3.820313 8.535156 8.53125zm0 0"/></svg>