<svg height="522.94925pt" viewBox="0 0 522.94925 522.94925" width="522.94925pt" xmlns="http://www.w3.org/2000/svg"><path d="m179.765625 408.554688h163.417969v98.050781h-163.417969zm0 0" fill="#d7e1f2"/><path d="m375.871094 522.949219h-228.792969c-9.019531 0-16.339844-7.320313-16.339844-16.34375 0-9.019531 7.320313-16.339844 16.339844-16.339844h228.792969c9.019531 0 16.339844 7.320313 16.339844 16.339844 0 9.023437-7.320313 16.34375-16.339844 16.34375zm0 0" fill="#e4edfb"/><path d="m522.949219 32.683594c0-18.058594-14.625-32.683594-32.683594-32.683594h-457.582031c-18.058594 0-32.683594 14.625-32.683594 32.683594v326.84375h522.949219zm0 0" fill="#80deea"/><path d="m0 343.183594v65.371094c0 18.058593 14.625 32.683593 32.683594 32.683593h457.582031c18.058594 0 32.683594-14.625 32.683594-32.683593v-65.371094zm0 0" fill="#e4edfb"/><g fill="#fff"><path d="m140.3125 245.132812-65.367188-65.367187 65.367188-65.371094c6.375-6.371093 16.734375-6.371093 23.109375 0 6.375 6.375 6.375 16.734375 0 23.109375l-42.261719 42.261719 42.261719 42.257813c6.375 6.375 6.375 16.734374 0 23.109374s-16.734375 6.375-23.109375 0zm0 0"/><path d="m359.527344 245.132812c-6.375-6.375-6.375-16.734374 0-23.109374l42.261718-42.257813-42.261718-42.261719c-6.375-6.375-6.375-16.734375 0-23.109375 6.375-6.371093 16.734375-6.371093 23.109375 0l65.367187 65.371094-65.367187 65.367187c-6.375 6.375-16.734375 6.375-23.109375 0zm0 0"/><path d="m228.789062 245.132812c-8.070312-4.035156-11.355468-13.859374-7.320312-21.929687l50.757812-101.503906c4.039063-8.070313 13.859376-11.339844 21.933594-7.304688 8.070313 4.039063 11.339844 13.859375 7.304688 21.914063l-50.757813 101.503906c-4.023437 8.089844-13.84375 11.355469-21.917969 7.320312zm0 0"/></g><path d="m245.132812 375.871094h32.683594v32.683594h-32.683594zm0 0" fill="#77959e"/></svg>