<svg height="512pt" viewBox="0 0 512 512" width="512pt" xmlns="http://www.w3.org/2000/svg"><path d="m482 0h-334c-16.542969 0-30 13.457031-30 30v118h-88c-16.542969 0-30 13.457031-30 30v48c0 15.867188 12.386719 28.890625 28 29.925781v20.148438c-15.613281 1.035156-28 14.058593-28 29.925781v48c0 15.867188 12.386719 28.890625 28 29.925781v20.148438c-15.613281 1.035156-28 14.058593-28 29.925781v48c0 16.542969 13.457031 30 30 30h208c16.542969 0 30-13.457031 30-30v-48c0-15.867188-12.386719-28.890625-28-29.925781v-20.074219h242c16.542969 0 30-13.457031 30-30v-75.433594c0-5.519531-4.476562-10-10-10s-10 4.480469-10 10v75.433594c0 5.515625-4.484375 10-10 10h-215.71875c1.109375-3.128906 1.71875-6.492188 1.71875-10v-48c0-15.867188-12.386719-28.890625-28-29.925781v-20.148438c15.613281-1.035156 28-14.058593 28-29.925781v-48c0-16.542969-13.457031-30-30-30h-100v-48h354v88.566406c0 5.523438 4.476562 10 10 10s10-4.476562 10-10v-158.566406c0-16.542969-13.457031-30-30-30zm-262 276h-172v-20h172zm0 128h-172v-20h172zm28 30v48c0 5.515625-4.484375 10-10 10h-208c-5.515625 0-10-4.484375-10-10v-48c0-5.515625 4.484375-10 10-10h208c5.515625 0 10 4.484375 10 10zm0-128v48c0 5.515625-4.484375 10-10 10h-208c-5.515625 0-10-4.484375-10-10v-48c0-5.515625 4.484375-10 10-10h208c5.515625 0 10 4.484375 10 10zm0-128v48c0 5.515625-4.484375 10-10 10h-208c-5.515625 0-10-4.484375-10-10v-48c0-5.515625 4.484375-10 10-10h208c5.515625 0 10 4.484375 10 10zm-110-98v-50c0-5.515625 4.484375-10 10-10h334c5.515625 0 10 4.484375 10 10v50zm0 0"/><path d="m502 223.570312c-2.628906 0-5.210938 1.058594-7.070312 2.929688-1.859376 1.859375-2.929688 4.429688-2.929688 7.070312 0 2.628907 1.070312 5.210938 2.929688 7.070313 1.859374 1.859375 4.441406 2.929687 7.070312 2.929687s5.210938-1.070312 7.070312-2.929687c1.859376-1.871094 2.929688-4.441406 2.929688-7.070313 0-2.632812-1.070312-5.210937-2.929688-7.070312-1.859374-1.871094-4.441406-2.929688-7.070312-2.929688zm0 0"/><path d="m342 40h-174c-5.523438 0-10 4.476562-10 10s4.476562 10 10 10h174c5.523438 0 10-4.476562 10-10s-4.476562-10-10-10zm0 0"/><path d="m462 40c-2.628906 0-5.210938 1.070312-7.070312 2.929688-1.859376 1.859374-2.929688 4.441406-2.929688 7.070312s1.070312 5.210938 2.929688 7.070312c1.859374 1.859376 4.441406 2.929688 7.070312 2.929688s5.210938-1.070312 7.070312-2.929688c1.859376-1.859374 2.929688-4.441406 2.929688-7.070312s-1.070312-5.210938-2.929688-7.070312c-1.859374-1.859376-4.441406-2.929688-7.070312-2.929688zm0 0"/><path d="m421.328125 40c-2.628906 0-5.207031 1.070312-7.066406 2.929688-1.863281 1.859374-2.933594 4.441406-2.933594 7.070312s1.070313 5.210938 2.933594 7.070312c1.867187 1.859376 4.4375 2.929688 7.066406 2.929688 2.632813 0 5.210937-1.070312 7.070313-2.929688 1.871093-1.859374 2.929687-4.441406 2.929687-7.070312s-1.058594-5.210938-2.929687-7.070312c-1.859376-1.859376-4.429688-2.929688-7.070313-2.929688zm0 0"/><path d="m346.984375 139.644531c-3.90625-3.90625-10.238281-3.90625-14.144531 0l-35.285156 35.285157c-1.875 1.875-2.929688 4.417968-2.929688 7.070312s1.054688 5.195312 2.929688 7.070312l35.285156 35.285157c1.953125 1.953125 4.511718 2.929687 7.070312 2.929687 2.5625 0 5.121094-.976562 7.074219-2.929687 3.902344-3.902344 3.902344-10.234375 0-14.140625l-28.21875-28.214844 28.214844-28.214844c3.90625-3.90625 3.90625-10.238281.003906-14.140625zm0 0"/><path d="m468.695312 174.929688-35.285156-35.285157c-3.90625-3.90625-10.238281-3.90625-14.144531 0-3.902344 3.902344-3.902344 10.234375 0 14.140625l28.21875 28.214844-28.214844 28.214844c-3.90625 3.90625-3.90625 10.238281 0 14.144531 1.953125 1.949219 4.511719 2.925781 7.070313 2.925781s5.117187-.976562 7.070312-2.925781l35.285156-35.289063c1.875-1.875 2.929688-4.417968 2.929688-7.070312s-1.054688-5.195312-2.929688-7.070312zm0 0"/><path d="m370.617188 238.5c4.40625 0 8.4375-2.929688 9.648437-7.382812l25.238281-92.996094c1.445313-5.328125-1.703125-10.820313-7.03125-12.269532-5.332031-1.449218-10.824218 1.703126-12.269531 7.03125l-25.242187 92.996094c-1.445313 5.328125 1.703124 10.820313 7.03125 12.269532.878906.238281 1.757812.351562 2.625.351562zm0 0"/><path d="m51.671875 320c-2.640625 0-5.210937 1.070312-7.070313 2.929688-1.871093 1.859374-2.929687 4.441406-2.929687 7.070312s1.058594 5.210938 2.929687 7.070312c1.859376 1.859376 4.4375 2.929688 7.070313 2.929688 2.628906 0 5.207031-1.070312 7.066406-2.929688 1.863281-1.859374 2.933594-4.441406 2.933594-7.070312s-1.070313-5.210938-2.933594-7.070312c-1.859375-1.859376-4.4375-2.929688-7.066406-2.929688zm0 0"/><path d="m91.671875 320c-2.640625 0-5.210937 1.070312-7.070313 2.929688-1.871093 1.859374-2.929687 4.441406-2.929687 7.070312s1.058594 5.210938 2.929687 7.070312c1.859376 1.859376 4.429688 2.929688 7.070313 2.929688 2.628906 0 5.207031-1.070312 7.066406-2.929688 1.863281-1.859374 2.933594-4.441406 2.933594-7.070312s-1.070313-5.210938-2.933594-7.070312c-1.859375-1.859376-4.4375-2.929688-7.066406-2.929688zm0 0"/><path d="m214.332031 320h-66.667969c-5.519531 0-10 4.476562-10 10s4.480469 10 10 10h66.667969c5.523438 0 10-4.476562 10-10s-4.476562-10-10-10zm0 0"/><path d="m51.671875 448c-2.640625 0-5.210937 1.070312-7.082031 2.929688-1.859375 1.859374-2.917969 4.441406-2.917969 7.070312s1.058594 5.210938 2.917969 7.070312c1.871094 1.859376 4.449218 2.929688 7.082031 2.929688 2.628906 0 5.199219-1.070312 7.066406-2.929688 1.863281-1.859374 2.933594-4.441406 2.933594-7.070312s-1.070313-5.210938-2.933594-7.070312c-1.859375-1.859376-4.4375-2.929688-7.066406-2.929688zm0 0"/><path d="m91.671875 448c-2.640625 0-5.210937 1.070312-7.070313 2.929688-1.871093 1.859374-2.929687 4.429687-2.929687 7.070312 0 2.628906 1.058594 5.210938 2.929687 7.070312 1.859376 1.859376 4.4375 2.929688 7.070313 2.929688 2.628906 0 5.207031-1.070312 7.066406-2.929688 1.863281-1.859374 2.933594-4.441406 2.933594-7.070312s-1.070313-5.210938-2.933594-7.070312c-1.859375-1.859376-4.4375-2.929688-7.066406-2.929688zm0 0"/><path d="m214.332031 448h-66.667969c-5.519531 0-10 4.476562-10 10s4.480469 10 10 10h66.667969c5.523438 0 10-4.476562 10-10s-4.476562-10-10-10zm0 0"/><path d="m51.671875 192c-2.640625 0-5.210937 1.070312-7.070313 2.929688-1.871093 1.859374-2.929687 4.441406-2.929687 7.070312s1.058594 5.210938 2.929687 7.070312c1.859376 1.859376 4.4375 2.929688 7.070313 2.929688 2.628906 0 5.207031-1.070312 7.066406-2.929688 1.863281-1.859374 2.933594-4.441406 2.933594-7.070312s-1.070313-5.210938-2.933594-7.070312c-1.859375-1.859376-4.4375-2.929688-7.066406-2.929688zm0 0"/><path d="m91.671875 192c-2.640625 0-5.210937 1.070312-7.070313 2.929688-1.871093 1.859374-2.929687 4.441406-2.929687 7.070312s1.058594 5.210938 2.929687 7.070312c1.859376 1.859376 4.429688 2.929688 7.070313 2.929688 2.628906 0 5.207031-1.070312 7.066406-2.929688 1.863281-1.859374 2.933594-4.441406 2.933594-7.070312s-1.070313-5.210938-2.933594-7.070312c-1.859375-1.859376-4.4375-2.929688-7.066406-2.929688zm0 0"/><path d="m147.667969 212h66.667969c5.519531 0 10-4.476562 10-10s-4.480469-10-10-10h-66.667969c-5.523438 0-10 4.476562-10 10s4.476562 10 10 10zm0 0"/><path d="m304.625 320c-5.523438 0-10 4.480469-10 10 0 5.523438 4.476562 10 10 10h63.375c5.523438 0 10-4.476562 10-10 0-5.519531-4.476562-10-10-10zm0 0"/><path d="m460.871094 320h-34.53125c-5.523438 0-10 4.480469-10 10 0 5.523438 4.476562 10 10 10h34.53125c5.523437 0 10-4.476562 10-10 0-5.519531-4.476563-10-10-10zm0 0"/><path d="m460.871094 272h-156.246094c-5.523438 0-10 4.480469-10 10 0 5.523438 4.476562 10 10 10h156.246094c5.523437 0 10-4.476562 10-10 0-5.519531-4.476563-10-10-10zm0 0"/></svg>