<svg height="512pt" viewBox="-48 0 512 512" width="512pt" xmlns="http://www.w3.org/2000/svg"><path d="m8.015625 7.015625h304.59375v464.90625h-304.59375zm0 0" fill="#e8f4fa"/><path d="m40.078125 343.671875h64.125v64.125h-64.125zm0 0" fill="#feee87"/><path d="m128.25 343.671875h64.125v64.125h-64.125zm0 0" fill="#feee87"/><path d="m8.015625 7.015625h304.59375v48.09375h-304.59375zm0 0" fill="#95a8b8"/><path d="m8.015625 183.359375h304.59375v128.25h-304.59375zm0 0" fill="#8ae0ff"/><path d="m8.015625 55.109375h24.046875v416.8125h-24.046875zm0 0" fill="#c0dceb"/><path d="m8.015625 7.015625h24.046875v48.09375h-24.046875zm0 0" fill="#5b788c"/><path d="m8.015625 183.359375h24.046875v128.25h-24.046875zm0 0" fill="#2ac3f2"/><path d="m96.1875 87.171875h128.25v32.0625h-128.25zm0 0" fill="#ff927d"/><path d="m40.078125 23.546875h16.03125v15.027344h-16.03125zm0 0" fill="#fff"/><path d="m72.140625 23.546875h16.03125v15.027344h-16.03125zm0 0" fill="#fff"/><path d="m104.203125 23.546875h16.03125v15.027344h-16.03125zm0 0" fill="#fff"/><path d="m376.734375 407.796875c0 35.414063-28.707031 64.125-64.125 64.125-35.414063 0-64.125-28.710937-64.125-64.125s28.710937-64.125 64.125-64.125c35.417969 0 64.125 28.710937 64.125 64.125zm0 0" fill="#95a8b8"/><g fill="#5b788c"><path d="m336.65625 407.796875c0 13.28125-10.765625 24.046875-24.046875 24.046875s-24.046875-10.765625-24.046875-24.046875 10.765625-24.046875 24.046875-24.046875 24.046875 10.765625 24.046875 24.046875zm0 0"/><path d="m296.578125 343.671875v-32.0625h32.0625v32.0625"/><path d="m328.640625 471.921875v32.0625h-32.0625v-32.0625"/><path d="m376.734375 391.765625h32.0625v32.0625h-32.0625"/><path d="m248.484375 423.828125h-32.0625v-32.0625h32.0625"/><path d="m369.289062 441.804688 22.671876 22.671874-22.671876 22.671876-22.671874-22.671876"/><path d="m255.929688 373.789062-22.671876-22.671874 22.671876-22.671876 22.671874 22.671876"/><path d="m346.617188 351.117188 22.671874-22.671876 22.671876 22.671876-22.671876 22.671874"/><path d="m278.601562 464.476562-22.671874 22.671876-22.671876-22.671876 22.671876-22.671874"/></g><path d="m15.03125 319.625h217.421875v-15.03125h-217.421875v-113.21875h289.5625v96.1875h15.03125v-287.5625h-319.625v479.9375h208.40625v-15.03125h-193.375zm0-143.28125v-113.21875h289.5625v113.21875zm289.5625-161.3125v33.0625h-289.5625v-33.0625zm0 0"/><path d="m231.453125 80.15625h-143.28125v47.09375h143.28125zm-15.03125 32.0625h-113.21875v-17.03125h113.21875zm0 0"/><path d="m88.171875 144.28125h144.28125v15.03125h-144.28125zm0 0"/><path d="m88.171875 208.40625h144.28125v15.03125h-144.28125zm0 0"/><path d="m88.171875 272.53125h144.28125v15.03125h-144.28125zm0 0"/><path d="m56.109375 240.46875h208.40625v15.03125h-208.40625zm0 0"/><path d="m32.0625 432.84375h144.28125v15.03125h-144.28125zm0 0"/><path d="m32.0625 336.65625v79.15625h79.15625v-79.15625zm64.125 64.125h-49.09375v-49.09375h49.09375zm0 0"/><path d="m199.390625 336.65625h-79.15625v79.15625h79.15625zm-15.03125 64.125h-49.09375v-49.09375h49.09375zm0 0"/><path d="m312.609375 376.234375c-17.402344 0-31.558594 14.160156-31.558594 31.5625s14.15625 31.5625 31.558594 31.5625 31.5625-14.160156 31.5625-31.5625-14.160156-31.5625-31.5625-31.5625zm0 48.09375c-9.113281 0-16.53125-7.414063-16.53125-16.53125s7.417969-16.53125 16.53125-16.53125c9.117187 0 16.535156 7.414063 16.535156 16.53125s-7.417969 16.53125-16.535156 16.53125zm0 0"/><path d="m415.8125 431.84375v-47.09375h-35.558594c-.910156-3.003906-1.960937-5.421875-3.160156-7.890625l25.496094-25.617187-33.300782-33.359376-25.742187 25.460938c-2.472656-1.199219-4.886719-2.277344-7.890625-3.191406v-35.558594h-47.09375v35.558594c-2.003906.914062-4.917969 1.960937-7.386719 3.160156l-25.371093-25.492188-33.234376 33.296876 25.523438 25.742187c-1.199219 2.472656-2.214844 4.886719-3.128906 7.890625h-36.558594v47.09375h36.558594c.914062 2.003906 1.960937 4.921875 3.160156 7.390625l-25.492188 25.367187 33.300782 33.234376 25.242187-25.523438c2.46875 1.199219 5.382813 2.214844 7.386719 3.128906v36.558594h47.09375v-36.558594c3.003906-.914062 5.417969-1.960937 7.890625-3.160156l25.617187 25.492188 33.359376-33.296876-25.460938-25.242187c1.199219-2.472656 2.28125-5.386719 3.191406-7.390625zm-15.03125-32.0625v17.03125h-17.054688c.332032-3.003906.523438-5.632812.523438-8.515625s-.191406-6.511719-.523438-8.515625zm-88.171875 64.625c-31.214844 0-56.609375-25.394531-56.609375-56.609375s25.394531-56.609375 56.609375-56.609375 56.613281 25.394531 56.613281 56.609375-25.398437 56.609375-56.613281 56.609375zm56.679687-125.335938 12.042969 12.046876-12.4375 12.4375c-3.523437-4.472657-7.570312-8.519532-12.042969-12.042969zm-65.695312-19.445312h17.03125v17.054688c-2.003906-.332032-5.632812-.523438-8.515625-.523438s-5.511719.191406-8.515625.523438zm-59.707031 31.492188 12.046875-12.042969 12.4375 12.4375c-4.476563 3.527343-8.519532 7.570312-12.046875 12.046875zm-20.449219 65.695312v-17.03125h18.058594c-.335938 2.003906-.527344 5.632812-.527344 8.515625s.191406 5.511719.527344 8.515625zm32.496094 59.707031-12.046875-12.042969 12.441406-12.4375c3.523437 4.472657 7.566406 8.515626 12.042969 12.042969zm64.691406 20.449219h-17.03125v-18.054688c3.003906.332032 5.632812.523438 8.515625.523438s6.511719-.191406 8.515625-.523438zm60.707031-32.492188-12.042969 12.042969-12.4375-12.4375c4.472657-3.527343 8.519532-7.570312 12.042969-12.046875zm0 0"/></svg>