<svg height="512" viewBox="0 0 64 64" width="512" xmlns="http://www.w3.org/2000/svg"><g id="Development-2" data-name="Development"><path d="m54 8a1 1 0 0 0 -1-1h-42a1 1 0 0 0 -1 1v5h44zm-40 3h-2v-2h2zm4 0h-2v-2h2zm4 0h-2v-2h2z"/><path d="m10 39h44v-24h-44zm27.293-16.293 1.414-1.414 5 5a1 1 0 0 1 0 1.414l-5 5-1.414-1.414 4.293-4.293zm-4.254-2.982 1.922.55-4 14-1.922-.55zm-12.746 6.568 5-5 1.414 1.414-4.293 4.293 4.293 4.293-1.414 1.414-5-5a1 1 0 0 1 0-1.414z"/><path d="m4 57h56v-4h-23v1a2 2 0 0 1 -2 2h-6a2 2 0 0 1 -2-2v-1h-23z"/><path d="m59.382 51-5-10h-44.764l-5 10zm-5.382-2h-2v-2h2zm-3-6h2v2h-2zm-1 6h-2v-2h2zm-3-6h2v2h-2zm-4 0h2v2h-2zm-4 0h2v2h-2zm-4 0h2v2h-2zm-4 0h2v2h-2zm-4 0h2v2h-2zm-4 0h2v2h-2zm-4 0h2v2h-2zm-1 4h28v2h-28zm-3-4h2v2h-2zm-1 4h2v2h-2zm-3-4h2v2h-2zm-1 4h2v2h-2z"/><path d="m29 53h6v1h-6z"/></g></svg>