<svg height="512pt" viewBox="0 -54 512 512" width="512pt" xmlns="http://www.w3.org/2000/svg"><path d="m17.929688 185.03125h149.171874c9.886719 0 17.929688-8.042969 17.929688-17.929688v-149.171874c0-9.886719-8.042969-17.929688-17.929688-17.929688h-29.402343c-4.144531 0-7.5 3.359375-7.5 7.5s3.355469 7.5 7.5 7.5h29.402343c1.617188 0 2.929688 1.3125 2.929688 2.929688v149.171874c0 1.617188-1.3125 2.929688-2.929688 2.929688h-149.171874c-1.617188 0-2.929688-1.3125-2.929688-2.929688v-149.171874c0-1.617188 1.3125-2.929688 2.929688-2.929688h84.375c4.140624 0 7.5-3.359375 7.5-7.5s-3.359376-7.5-7.5-7.5h-84.375c-9.886719 0-17.929688 8.042969-17.929688 17.929688v149.171874c0 9.886719 8.042969 17.929688 17.929688 17.929688zm0 0"/><path d="m230.117188 51.367188h256.757812c13.851562 0 25.125-11.269532 25.125-25.125 0-13.851563-11.273438-25.125-25.125-25.125h-256.757812c-13.851563 0-25.125 11.273437-25.125 25.125 0 13.855468 11.273437 25.125 25.125 25.125zm0-35.25h256.757812c5.582031 0 10.125 4.542968 10.125 10.125 0 5.582031-4.542969 10.125-10.125 10.125h-256.757812c-5.582032 0-10.125-4.542969-10.125-10.125 0-5.582032 4.542968-10.125 10.125-10.125zm0 0"/><path d="m486.875 67.390625h-256.757812c-13.851563 0-25.125 11.269531-25.125 25.125 0 13.851563 11.273437 25.125 25.125 25.125h256.757812c13.851562 0 25.125-11.273437 25.125-25.125 0-13.855469-11.269531-25.125-25.125-25.125zm0 35.25h-256.757812c-5.582032 0-10.125-4.542969-10.125-10.125s4.542968-10.125 10.125-10.125h256.757812c5.582031 0 10.125 4.542969 10.125 10.125s-4.542969 10.125-10.125 10.125zm0 0"/><path d="m486.875 133.660156h-256.757812c-13.851563 0-25.125 11.273438-25.125 25.125 0 13.855469 11.273437 25.125 25.125 25.125h256.757812c13.851562 0 25.125-11.269531 25.125-25.125 0-13.851562-11.269531-25.125-25.125-25.125zm0 35.253906h-256.757812c-5.582032 0-10.125-4.542968-10.125-10.125 0-5.585937 4.542968-10.125 10.125-10.125h256.757812c5.582031 0 10.125 4.539063 10.125 10.125 0 5.582032-4.542969 10.125-10.125 10.125zm0 0"/><path d="m494.070312 218.074219h-149.171874c-9.886719 0-17.929688 8.042969-17.929688 17.929687v33.851563c0 4.140625 3.359375 7.5 7.5 7.5s7.5-3.359375 7.5-7.5v-33.851563c0-1.613281 1.3125-2.929687 2.929688-2.929687h149.171874c1.617188 0 2.929688 1.316406 2.929688 2.929687v149.171875c0 1.617188-1.3125 2.929688-2.929688 2.929688h-149.171874c-1.617188 0-2.929688-1.3125-2.929688-2.929688v-79.925781c0-4.140625-3.359375-7.5-7.5-7.5s-7.5 3.359375-7.5 7.5v79.925781c0 9.886719 8.042969 17.929688 17.929688 17.929688h149.171874c9.886719 0 17.929688-8.042969 17.929688-17.929688v-149.171875c0-9.886718-8.042969-17.929687-17.929688-17.929687zm0 0"/><path d="m281.882812 351.738281h-256.757812c-13.855469 0-25.125 11.269531-25.125 25.125s11.269531 25.125 25.125 25.125h256.753906c13.855469 0 25.125-11.269531 25.125-25.125s-11.269531-25.125-25.121094-25.125zm0 35.25h-256.757812c-5.582031 0-10.125-4.542969-10.125-10.125s4.542969-10.125 10.125-10.125h256.753906c5.585938 0 10.125 4.542969 10.125 10.125s-4.539062 10.125-10.121094 10.125zm0 0"/><path d="m281.882812 285.464844h-256.757812c-13.855469 0-25.125 11.269531-25.125 25.125 0 13.855468 11.269531 25.125 25.125 25.125h256.753906c13.855469 0 25.125-11.269532 25.125-25.125 0-13.855469-11.269531-25.125-25.121094-25.125zm0 35.25h-256.757812c-5.582031 0-10.125-4.539063-10.125-10.125 0-5.582032 4.542969-10.125 10.125-10.125h256.753906c5.585938 0 10.125 4.542968 10.125 10.125 0 5.585937-4.539062 10.125-10.121094 10.125zm0 0"/><path d="m281.882812 219.191406h-83.183593c-4.144531 0-7.5 3.359375-7.5 7.5 0 4.144532 3.355469 7.5 7.5 7.5h83.183593c5.582032 0 10.125 4.542969 10.125 10.125 0 5.585938-4.542968 10.125-10.125 10.125h-256.757812c-5.582031 0-10.125-4.539062-10.125-10.125 0-5.582031 4.542969-10.125 10.125-10.125h138.175781c4.144531 0 7.5-3.355468 7.5-7.5 0-4.140625-3.355469-7.5-7.5-7.5h-138.175781c-13.855469 0-25.125 11.273438-25.125 25.125 0 13.855469 11.269531 25.125 25.125 25.125h256.753906c13.855469 0 25.125-11.269531 25.125-25.125 0-13.851562-11.269531-25.125-25.121094-25.125zm0 0"/><path d="m53.515625 66.722656h18.3125c4.140625 0 7.5-3.359375 7.5-7.5s-3.359375-7.5-7.5-7.5h-18.3125c-4.144531 0-7.5 3.359375-7.5 7.5 0 4.144532 3.355469 7.5 7.5 7.5zm0 0"/><path d="m131.515625 89.226562h-78c-4.144531 0-7.5 3.359376-7.5 7.5 0 4.140626 3.355469 7.5 7.5 7.5h78c4.140625 0 7.5-3.359374 7.5-7.5 0-4.140624-3.359375-7.5-7.5-7.5zm0 0"/><path d="m131.515625 118.308594h-78c-4.144531 0-7.5 3.355468-7.5 7.5 0 4.140625 3.355469 7.5 7.5 7.5h78c4.140625 0 7.5-3.359375 7.5-7.5 0-4.144532-3.359375-7.5-7.5-7.5zm0 0"/><path d="m380.484375 284.796875h18.3125c4.140625 0 7.5-3.355469 7.5-7.5 0-4.140625-3.359375-7.5-7.5-7.5h-18.3125c-4.140625 0-7.5 3.359375-7.5 7.5 0 4.144531 3.359375 7.5 7.5 7.5zm0 0"/><path d="m380.484375 322.300781h78c4.144531 0 7.5-3.359375 7.5-7.5s-3.355469-7.5-7.5-7.5h-78c-4.140625 0-7.5 3.359375-7.5 7.5s3.359375 7.5 7.5 7.5zm0 0"/><path d="m380.484375 351.382812h78c4.144531 0 7.5-3.359374 7.5-7.5 0-4.140624-3.355469-7.5-7.5-7.5h-78c-4.140625 0-7.5 3.359376-7.5 7.5 0 4.140626 3.359375 7.5 7.5 7.5zm0 0"/></svg>