<?xml version="1.0" encoding="iso-8859-1"?>
<!-- Generator: Adobe Illustrator 18.0.0, SVG Export Plug-In . SVG Version: 6.00 Build 0)  -->
<!DOCTYPE svg PUBLIC "-//W3C//DTD SVG 1.1//EN" "http://www.w3.org/Graphics/SVG/1.1/DTD/svg11.dtd">
<svg version="1.1" id="Capa_1" xmlns="http://www.w3.org/2000/svg" xmlns:xlink="http://www.w3.org/1999/xlink" x="0px" y="0px"
	 viewBox="0 0 490 490" style="enable-background:new 0 0 490 490;" xml:space="preserve">
<g>
	<path d="M480,43.407H10c-5.523,0-10,4.478-10,10v383.186c0,5.523,4.477,10,10,10h470c5.522,0,10-4.477,10-10V53.407
		C490,47.885,485.522,43.407,480,43.407z M470,63.407v60.225H20V63.407H470z M20,426.593V143.632h450v282.961H20z"/>
	<path d="M156.082,193.946H76.117c-5.522,0-10,4.477-10,10v80.996c0,5.522,4.478,10,10,10h79.965c5.523,0,10-4.478,10-10v-80.996
		C166.082,198.423,161.605,193.946,156.082,193.946z M146.082,274.942H86.117v-60.996h59.965V274.942z"/>
	<path d="M204.285,294.942h79.961c5.522,0,10-4.478,10-10v-80.996c0-5.523-4.478-10-10-10h-79.961c-5.522,0-10,4.477-10,10v80.996
		C194.285,290.465,198.763,294.942,204.285,294.942z M214.285,213.946h59.961v60.996h-59.961V213.946z"/>
	<path d="M332.455,294.942h79.965c5.523,0,10-4.478,10-10v-80.996c0-5.523-4.477-10-10-10h-79.965c-5.523,0-10,4.477-10,10v80.996
		C322.455,290.465,326.933,294.942,332.455,294.942z M342.455,213.946h59.965v60.996h-59.965V213.946z"/>
	<path d="M156.082,320.317H76.117c-5.522,0-10,4.477-10,10c0,5.523,4.478,10,10,10h79.965c5.523,0,10-4.477,10-10
		C166.082,324.795,161.605,320.317,156.082,320.317z"/>
	<path d="M156.082,357.317H76.117c-5.522,0-10,4.477-10,10c0,5.523,4.478,10,10,10h79.965c5.523,0,10-4.477,10-10
		C166.082,361.795,161.605,357.317,156.082,357.317z"/>
	<path d="M284.982,320.317H205.02c-5.522,0-10,4.477-10,10c0,5.523,4.478,10,10,10h79.963c5.523,0,10-4.477,10-10
		C294.982,324.795,290.505,320.317,284.982,320.317z"/>
	<path d="M284.982,357.317H205.02c-5.522,0-10,4.477-10,10c0,5.523,4.478,10,10,10h79.963c5.523,0,10-4.477,10-10
		C294.982,361.795,290.505,357.317,284.982,357.317z"/>
	<path d="M413.883,320.317h-79.965c-5.522,0-10,4.477-10,10c0,5.523,4.478,10,10,10h79.965c5.522,0,10-4.477,10-10
		C423.883,324.795,419.405,320.317,413.883,320.317z"/>
	<path d="M413.883,357.317h-79.965c-5.522,0-10,4.477-10,10c0,5.523,4.478,10,10,10h79.965c5.522,0,10-4.477,10-10
		C423.883,361.795,419.405,357.317,413.883,357.317z"/>
	<path d="M76.117,103.299h4.938c5.522,0,10-4.478,10-10c0-5.522-4.478-10-10-10h-4.938c-5.522,0-10,4.478-10,10
		C66.117,98.821,70.595,103.299,76.117,103.299z"/>
	<path d="M117.584,103.299h4.935c5.522,0,10-4.478,10-10c0-5.522-4.477-10-10-10h-4.935c-5.522,0-10,4.478-10,10
		C107.584,98.821,112.062,103.299,117.584,103.299z"/>
	<path d="M159.049,103.299h4.932c5.522,0,10-4.478,10-10c0-5.522-4.478-10-10-10h-4.932c-5.522,0-10,4.478-10,10
		C149.049,98.821,153.526,103.299,159.049,103.299z"/>
</g>
<g>
</g>
<g>
</g>
<g>
</g>
<g>
</g>
<g>
</g>
<g>
</g>
<g>
</g>
<g>
</g>
<g>
</g>
<g>
</g>
<g>
</g>
<g>
</g>
<g>
</g>
<g>
</g>
<g>
</g>
</svg>
