<?xml version="1.0" encoding="iso-8859-1"?>
<!-- Generator: Adobe Illustrator 19.0.0, SVG Export Plug-In . SVG Version: 6.00 Build 0)  -->
<svg version="1.1" id="Capa_1" xmlns="http://www.w3.org/2000/svg" xmlns:xlink="http://www.w3.org/1999/xlink" x="0px" y="0px"
	 viewBox="0 0 512 512" style="enable-background:new 0 0 512 512;" xml:space="preserve">
<g>
	<g>
		<path d="M383.294,496.704c-10.082-54.649-3.212-111.074,19.691-161.707l-19.499-8.661
			c-23.212,51.454-31.146,108.495-22.859,164.331H153.438l27.296-81.963c0.64-1.922,0.719-3.986,0.228-5.951
			c-1.427-5.716-7.217-9.193-12.932-7.766c-0.448,0.085-40.117,9.771-68.715,0.224c-20.907-6.976-19.093-59.659-14.933-84.085
			c0.101-0.593,0.152-1.193,0.152-1.794c-0.001-5.891-4.778-10.666-10.669-10.664H35.177c-7.638,0-13.837-6.176-13.867-13.813
			c-0.005-2.767,0.828-5.47,2.389-7.755l53.664-79.083c1.612-2.389,2.196-5.325,1.621-8.149
			c-6.287-38.491,3.444-77.879,26.933-109.013c32.192-39.499,89.589-59.52,170.613-59.52V0C188.777,0,125.843,22.667,89.374,67.371
			c-26.753,34.722-38.318,78.792-32.064,122.176L6.046,265.109c-3.917,5.803-6.013,12.643-6.023,19.644
			c-0.026,19.44,15.713,35.221,35.153,35.247h26.485c-2.827,26.368-4.629,83.595,30.944,95.477
			c20.252,5.633,41.479,6.844,62.24,3.552l-26.325,78.933c-0.362,1.088-0.547,2.227-0.547,3.373
			c0.001,5.891,4.778,10.666,10.669,10.664H373.31c0.663,0,1.325-0.062,1.976-0.184c5.789-1.09,9.599-6.667,8.509-12.456
			L383.294,496.704z"/>
	</g>
</g>
<g>
	<g>
		<rect x="245.31" y="352" width="21.333" height="21.333"/>
	</g>
</g>
<g>
	<g>
		<rect x="266.643" y="394.667" width="21.333" height="21.333"/>
	</g>
</g>
<g>
	<g>
		<rect x="287.977" y="437.333" width="21.333" height="21.333"/>
	</g>
</g>
<g>
	<g>
		<path d="M330.643,85.333c-53.019,0-96,42.981-96,96c0,53.019,42.981,96,96,96c52.993-0.065,95.935-43.007,96-96
			C426.643,128.314,383.663,85.333,330.643,85.333z M330.643,256c-41.237,0-74.667-33.429-74.667-74.667
			c0-41.237,33.429-74.667,74.667-74.667c41.218,0.047,74.62,33.449,74.667,74.667C405.31,222.571,371.881,256,330.643,256z"/>
	</g>
</g>
<g>
	<g>
		<path d="M287.977,181.333h-21.333c0.035,35.332,28.668,63.965,64,64V224C307.079,224,287.977,204.898,287.977,181.333z"/>
	</g>
</g>
<g>
	<g>
		<path d="M330.643,117.333v21.333c23.564,0,42.667,19.102,42.667,42.667h21.333C394.608,146.002,365.975,117.369,330.643,117.333z"
			/>
	</g>
</g>
<g>
	<g>
		<path d="M503.07,149.493l-39.296-6.56c-2.878-9.927-6.864-19.498-11.883-28.533l23.189-32.459
			c3.028-4.243,2.545-10.053-1.141-13.739l-30.176-30.176c-3.685-3.686-9.495-4.169-13.739-1.141l-32.459,23.189
			c-9.032-5.014-18.6-8.997-28.523-11.872l-6.549-39.296c-0.86-5.139-5.307-8.905-10.517-8.907H309.31
			c-5.211,0.002-9.658,3.767-10.517,8.907l-6.549,39.296c-9.926,2.874-19.498,6.857-28.533,11.872l-32.459-23.189
			c-4.243-3.028-10.053-2.545-13.739,1.141l-30.176,30.176c-3.686,3.685-4.169,9.495-1.141,13.739l23.189,32.459
			c-5.014,9.032-8.997,18.6-11.872,28.523l-39.296,6.56c-5.139,0.86-8.905,5.307-8.907,10.517v42.667
			c0.007,5.207,3.771,9.648,8.907,10.507l39.296,6.56c2.878,9.927,6.864,19.498,11.883,28.533l-23.189,32.459
			c-3.028,4.243-2.545,10.053,1.141,13.739l30.176,30.176c3.685,3.686,9.495,4.169,13.739,1.141l32.459-23.189
			c9.032,5.014,18.6,8.997,28.523,11.872l6.549,39.296c0.86,5.139,5.307,8.905,10.517,8.907h42.667
			c5.207-0.007,9.648-3.771,10.507-8.907l6.56-39.296c9.926-2.874,19.498-6.857,28.533-11.872l32.459,23.189
			c4.243,3.028,10.053,2.545,13.739-1.141l30.176-30.176c3.686-3.685,4.169-9.495,1.141-13.739l-23.189-32.459
			c5.014-9.032,8.997-18.6,11.872-28.523l39.296-6.56c5.139-0.86,8.905-5.307,8.907-10.517V160
			C511.97,154.793,508.205,150.352,503.07,149.493z M490.643,193.632l-37.237,6.24c-4.25,0.711-7.654,3.91-8.629,8.107
			c-2.926,12.458-7.881,24.35-14.667,35.2c-2.288,3.66-2.145,8.338,0.363,11.851l21.963,30.752l-17.387,17.387l-30.752-21.963
			c-3.513-2.507-8.191-2.65-11.851-0.363c-10.85,6.786-22.742,11.741-35.2,14.667c-4.197,0.975-7.395,4.38-8.107,8.629
			l-6.197,37.195h-24.597l-6.24-37.237c-0.711-4.25-3.909-7.654-8.107-8.629c-12.458-2.926-24.35-7.881-35.2-14.667
			c-3.66-2.288-8.338-2.145-11.851,0.363l-30.752,21.963l-17.387-17.387l21.963-30.752c2.507-3.513,2.651-8.191,0.363-11.851
			c-6.786-10.85-11.741-22.742-14.667-35.2c-0.975-4.197-4.38-7.395-8.629-8.107l-37.195-6.197v-24.597l37.195-6.24
			c4.25-0.711,7.654-3.91,8.629-8.107c2.926-12.458,7.881-24.35,14.667-35.2c2.288-3.66,2.145-8.338-0.363-11.851l-21.963-30.752
			l17.387-17.387l30.795,21.963c3.513,2.507,8.191,2.65,11.851,0.363c10.85-6.786,22.742-11.741,35.2-14.667
			c4.197-0.975,7.395-4.38,8.107-8.629l6.197-37.195h24.597l6.24,37.195c0.711,4.25,3.909,7.654,8.107,8.629
			c12.458,2.926,24.35,7.881,35.2,14.667c3.66,2.288,8.338,2.145,11.851-0.363l30.752-21.92l17.387,17.387l-21.963,30.752
			c-2.507,3.513-2.65,8.191-0.363,11.851c6.786,10.85,11.741,22.742,14.667,35.2c0.975,4.197,4.38,7.395,8.629,8.107l37.195,6.197
			V193.632z"/>
	</g>
</g>
<g>
</g>
<g>
</g>
<g>
</g>
<g>
</g>
<g>
</g>
<g>
</g>
<g>
</g>
<g>
</g>
<g>
</g>
<g>
</g>
<g>
</g>
<g>
</g>
<g>
</g>
<g>
</g>
<g>
</g>
</svg>
