<svg viewBox="0 0 512 512" xmlns="http://www.w3.org/2000/svg"><path d="m480.546875 270.375c.300781-4.78125.453125-9.59375.453125-14.375 0-124.617188-100.933594-226-225-226-4.785156 0-9.605469.152344-14.390625.453125-26-19.679687-58.289063-30.453125-91.609375-30.453125-82.710938 0-150 67.738281-150 151 0 32.714844 10.773438 64.652344 30.453125 90.609375-.300781 4.785156-.453125 9.605469-.453125 14.390625 0 124.378906 101.632812 226 226 226 4.785156 0 9.605469-.152344 14.390625-.453125 25.957031 19.679687 57.894531 30.453125 90.609375 30.453125 82.929688 0 151-68.089844 151-151 0-32.039062-11.128906-63.988281-31.453125-90.625zm-119.546875 211.625c-49.730469 0-78.699219-29.929688-81.109375-31.347656-4.085937.304687-12.027344 1.347656-23.890625 1.347656-108.074219 0-196-87.925781-196-196 0-11.898438 1.050781-19.910156 1.351562-23.886719-1.390624-2.359375-31.351562-31.359375-31.351562-81.113281 0-66.71875 53.832031-121 120-121 50.992188 0 79.707031 29.945312 82.109375 31.347656 3.96875-.296875 12-1.347656 23.890625-1.347656 107.523438 0 195 87.925781 195 196 0 11.898438-1.050781 19.910156-1.351562 23.886719 1.398437 2.335937 32.351562 32.8125 32.351562 81.113281 0 66.71875-54.28125 121-121 121zm0 0"/><path d="m256 211c-14.816406 0-29.269531-3.742188-38.667969-10.015625-2.941406-1.964844-4.898437-3.710937-6.105469-4.984375 1.207032-1.277344 3.171876-3.027344 6.121094-4.996094 26.566406-17.726562 73.199219-7.539062 83.089844 4.625 15.328125 18.859375 31.5625 14.929688 35.769531 15.371094 17.011719 0 32.183594-9.542969 39.59375-24.90625 7.371094-15.277344 5.417969-32.984375-5.101562-46.207031-45.699219-57.476563-148.320313-61.128907-204.289063-23.75-29.496094 19.648437-46.410156 48.757812-46.410156 79.863281s16.910156 60.210938 46.378906 79.839844c23.9375 15.988281 56.601563 25.160156 89.621094 25.160156 14.816406 0 29.269531 3.742188 38.667969 10.015625 2.992187 2 4.769531 3.804687 5.699219 4.984375-.929688 1.179688-2.710938 2.992188-5.714844 4.996094-26.101563 17.410156-73.78125 8.054687-84.085938-4.628906-17.46875-21.488282-59.980468-22.351563-75.367187 9.539062-7.367188 15.273438-5.414063 32.980469 5.101562 46.207031 26.796875 33.703125 72.972657 48.886719 115.699219 48.886719 32.855469 0 64.324219-8.929688 88.589844-25.132812 29.496094-19.652344 46.410156-48.761719 46.410156-79.867188 0-54.460938-53.929688-105-135-105zm71.941406 159.90625c-19.398437 12.957031-44.949218 20.09375-71.941406 20.09375-33.621094 0-71.386719-11.359375-92.21875-37.554688-4.808594-6.046874-2.691406-12.15625-1.5625-14.503906 5.484375-11.367187 21.050781-8.589844 25.066406-3.648437 21.035156 25.882812 86.199219 35.890625 124.023438 10.65625 12.699218-8.480469 19.691406-19.117188 19.691406-29.949219 0-10.835938-6.988281-21.46875-19.679688-29.9375-14.34375-9.574219-34.503906-15.0625-55.320312-15.0625-27.238281 0-53.828125-7.328125-72.972656-20.117188-20.988282-13.980468-33.027344-33.984374-33.027344-54.882812s12.042969-40.90625 33.058594-54.90625c43.5625-29.089844 128.769531-27.046875 164.160156 17.460938 4.808594 6.050781 2.695312 12.15625 1.5625 14.503906-.898438 1.863281-4.460938 7.941406-12.574219 7.941406-7.402343-.316406-8.421875.714844-12.492187-4.289062-20.679688-25.445313-84.730469-36.203126-123.023438-10.660157-9.4375 6.304688-20.691406 16.617188-20.691406 29.949219 0 13.339844 11.246094 23.644531 20.679688 29.9375 14.34375 9.574219 34.503906 15.0625 55.320312 15.0625 26.992188 0 52.546875 7.140625 71.972656 20.117188 20.988282 13.980468 33.027344 33.984374 33.027344 54.882812s-12.042969 40.90625-33.058594 54.90625zm0 0"/></svg>