<svg xmlns="http://www.w3.org/2000/svg" viewBox="0 0 185.19 165.09"><g id="Layer_2" data-name="Layer 2"><g id="Layer_1-2" data-name="Layer 1"><path d="M31.7,30.45H54.13V35.2H45.74V58.33H40.09V35.2H31.7Z"/><path d="M58.15,30.45H63.8V41.37h11V30.45h5.66V58.33H74.76V46.05h-11V58.33H58.15Z"/><path d="M85.88,30.45h20.51V35.2H91.53v6.24h13v4.64h-13v7.53h15v4.72H85.88Z"/><path d="M33.15,68.45H53.66V73.2H38.8v6.24h13v4.64h-13v7.53h15v4.72H33.15Z"/><path d="M65.63,81.74,57.29,68.45h6.35l5.15,8.81h.08L74,68.45h6.16L72,81.71l9.24,14.62H74.64L69,86.15h-.08L63.1,96.33H56.62Z"/><path d="M84.86,68.45H97.11c3.23,0,5.65.93,7.29,2.61a8.93,8.93,0,0,1,2.5,6.36c0,5.26-3.48,8.81-9.33,8.81H90.71v10.1H84.86Zm5.85,13.18h5.85c3,0,4.53-1.64,4.53-4.18s-1.64-4.09-4.45-4.09H90.71Z"/><path d="M116,68.45h5.85l9.83,27.88h-5.89l-1.87-5.93H113.88L112,96.33h-5.73Zm-.82,17.62h7.37l-2.49-8c-.47-1.48-1.13-4.29-1.13-4.29h-.08s-.7,2.81-1.17,4.29Z"/><path d="M130.26,68.45h22.42V73.2H144.3V96.33h-5.66V73.2h-8.38Z"/><path d="M33.15,106.45H38.8v23.16H51.91v4.72H33.15Z"/><path d="M53.74,120.45c0-8.35,5.22-14.55,13.45-14.55s13.42,6.2,13.42,14.55S75.42,135,67.19,135,53.74,128.79,53.74,120.45Zm21.1,0c0-5.58-2.5-9.91-7.61-9.91s-7.72,4.33-7.72,9.91,2.61,9.86,7.72,9.86S74.84,126,74.84,120.45Z"/><path d="M105.1,130.59H105a8.32,8.32,0,0,1-7.83,4.33,12.69,12.69,0,0,1-9.79-4.06,16.56,16.56,0,0,1,.93-21.76,12.78,12.78,0,0,1,9-3.2c7,0,11,3.86,11.94,9.32H103.7c-.63-2.69-2.69-4.64-6.28-4.64-5.27,0-7.88,4.37-7.88,9.91,0,5.69,3,9.86,7.8,9.86,4.33,0,7.18-3.23,7.18-6.32v-.15H97.81v-4.37h11.74v14.82H105.3Z"/><path d="M138.16,130.11c2-1.56,4.11-2.66,4.11-4.67,0-1.47-.77-2.45-2.17-2.45-1.58,0-2.52,1.14-2.56,3.18h-2.93c0-3.57,1.83-5.84,5.56-5.84,3.41,0,5.33,2.31,5.33,5,0,3-2,4.35-3.93,5.64a9.29,9.29,0,0,0-3.16,2.79h7.23v2.56H134.38C134.49,133.33,136.37,131.5,138.16,130.11Z"/><path d="M147.29,131.8h3.07c.27,1.53,1.55,2.27,3.18,2.27a2.8,2.8,0,0,0,2.9-3,2.71,2.71,0,0,0-2.9-2.88,3.46,3.46,0,0,0-2.57,1h-3l1.51-8.56h9.24v2.59h-7.07l-.59,3.39h0a4.94,4.94,0,0,1,3.25-1,5.27,5.27,0,0,1,5.31,5.47c0,3.28-2.63,5.56-6.06,5.56S147.59,134.84,147.29,131.8Z"/><path d="M28.5,159.31l-.93,4.59c-3.32,1.25-10.85,1.52-19.09.69l-2.15-5.86L.68,156.5C-.21,152.55-.21,140,.71,136c6.77-2.37,7.23-3.1,5.53-9.22L0,124.41v-21c3.47-.23,6.52-.62,7.41-4.67.13-4.22-2.93-5.46-7.23-5.85C.16,89.51.08,86.24.05,83s0-6.66,0-10.14a20.86,20.86,0,0,1,2.55-1.52c5-2,5.6-3.56,3.06-8.73L.73,60.93c-.94-4.26-.93-16.86,0-21.18,2.66-.75,6-.92,6.73-5.32.1-3.87-3.14-4.62-6.41-4.74C-.18,25.77-.36,13.28.66,7.84,4.59,7,8.18,5.5,8.25.1,14.74,0,21-.11,27,.17c2.34,7.06,2.51,7.18,8.73,6.49L38.86.16C44.53-.11,50.76,0,56.93.1c1.53,2.95,1,7,5.56,7s4.37-3.72,5.52-7c6.11-.24,12.22,0,18.56-.1.54,1.32,1,2.52,1.5,3.7,1.11,2.6,2.46,3.51,4.9,3.36S96.29,6,97.13,3c.21-.77.46-1.54.78-2.59H117.1c.33,1.08.7,2.13,1,3.2a4.28,4.28,0,0,0,3.72,3.5,4.47,4.47,0,0,0,5-2.5c.68-1.31,1.14-2.73,1.79-4.3h18.16c1.91,2,.7,5.5,3.68,6.37a26.26,26.26,0,0,0,5.08.46c1-2.34,1.93-4.44,3-6.79H177c1.12,3.5,1.84,7.67,6.91,7.09,1.46,3.56,1.67,17,.37,22l-4.52,1c-3.16,5.57-2.2,7.57,4.36,9.34,1.19,3.25,1.47,13.32.54,20.89l-4.93,1.83c-3.19,5.42-2.54,6.74,5,9.73V92.55c-3.11,1.08-7,1.63-6.73,6.35.16,2.7,1.43,3.57,6.78,4.8v20.83c-2.88,1.37-6.9,1.53-6.81,6.08.08,4.14,3.52,4.22,6.19,5,1.07,3.5,1.28,15.07.39,21l-5.25,1.93c-.84,2-1.73,4.05-2.65,6.23H158.45l-2.4-5.84c-2.69-2-5.07-1.41-7.54.12-.34,1.7-.65,3.3-.95,4.83-3.32,1.31-10.66,1.58-18.84.74-.84-2-1.71-4.13-2.65-6.39h-6.6c-.7,1.83-1.44,3.78-2.33,6.14a17.76,17.76,0,0,1-3,.56c-3.49.08-7,0-10.49,0-5.58,0-5.67-.1-7.1-5.82l-3.18-2-4.06,1.27-2.64,6.4c-5.75.24-11.7.08-18.22.08-.66-1.87-1.34-3.83-2-5.83-2-1.89-4.31-1-6.94-1-.75,2.05-1.47,4-2.21,6-3.3,1.05-11.81,1.26-18.63.44l-2.5-6.16C33.28,157.89,30.84,157.22,28.5,159.31Zm123.89-7.14c5.08.76,8.59,3.22,10.15,7.54h9.1l8.23-7.87V140.11c-5.86-2.88-8.07-7.37-6.27-14.21l6.33-6V108c-6.5-3.58-7.54-5.8-6.41-14.07,1.88-1.66,4.08-3.63,6.28-5.58V76c-6.2-2.8-7.82-7.53-6.24-14.1l6.33-5.51V44.27c-3.74-2.3-6.91-4.72-6.95-9.67,0-5.15,3.31-7.65,6.87-9.84V13l-7.7-7.81H163c-7.28,10.22-14.6,8.86-20.5.14h-10.1c-6.48,9.37-12.74,9.32-19.87,0H102c-1.62,4.34-4.61,6.74-9.36,6.89-5.14.16-7.58-3.44-10-6.91h-10c-2.68,3.82-5.38,7-10.47,6.92s-7.33-4-10-7H42.9c-2.7,3.38-5.11,7-10.22,7.06s-7.62-3.39-9.9-6.83H13.11L5.34,12.92V24.41C13.17,29.23,16,37.26,5.27,44.85v11.2c3.49,2.38,6.75,5.12,7,10,.22,5.1-2.94,7.84-6.89,10.2V87.87c3.14,2.76,6.88,5,6.93,10.15.06,5.32-3.38,8-6.9,10.38v12c9.5,5.68,9.44,12.5-.06,20.15v10.85l8.31,8.29a14.36,14.36,0,0,0,1.47.16c4.11,0,7.79.36,10.67-4.28S33.43,151,38,154.38a56.42,56.42,0,0,1,5.48,5.32h9.23c2.07-4.22,5.27-7.25,9.92-7.44,5.05-.2,7.84,3.71,10.52,7.65,1.71,0,3.36,0,5,0,2.77.07,4.81-.3,6.44-3.33,2.28-4.22,8.54-5.44,12.67-2.85,2.17,1.36,3.82,3.54,6.1,5.74a43,43,0,0,0,4.76.37,36.9,36.9,0,0,0,4.68-.59c6.69-9.44,11-9.33,20.59.43h9.07C146,154.56,147,153.49,152.39,152.17Z"/><path d="M163.94,19.9c0,27,0,53.48,0,79.92a11.62,11.62,0,0,1-.66,2.75c-23.63,2.1-39.33,14.53-41.66,41.84-3.73.82-89.79,1.16-98.81.39-1.88-1.6-1.62-3.83-1.63-6V20.94c1.91-1.6,4-1,5.9-1q46.76-.06,93.49,0h43.4ZM117.25,139.28c3.53-24.34,17.79-37.5,41.27-41a9.3,9.3,0,0,0,.43-1.77q0-34,0-67.95c0-.82-.11-1.65-.19-2.48a1.09,1.09,0,0,0-.26-.41c-.1-.13-.21-.25-.32-.38-8.88-.83-127.58-.48-131.79.53-.05,2.26-.22,4.7-.14,7.13.08,2.64.57,5.28.57,7.92q.08,44.21,0,88.43a21,21,0,0,1-.18,5,6.86,6.86,0,0,0,.89,5.53C37.46,140.58,113.39,140.22,117.25,139.28Z"/><text/></g></g></svg>